<svg width="50" height="30" viewBox="0 0 50 30" fill="none" xmlns="http://www.w3.org/2000/svg">
<g clip-path="url(#clip0)">
<path fill-rule="evenodd" clip-rule="evenodd" d="M15.5461 0.0891796C17.252 -0.00759465 18.9559 0.00014729 20.6618 0.00014729C20.6735 0.00014729 29.3059 0.00014729 29.3059 0.00014729C31.0451 0.00014729 32.749 -0.00759465 34.4539 0.0891796C36.0039 0.176276 37.5137 0.362083 39.0167 0.777244C42.1804 1.65015 44.9431 3.47337 46.9402 6.05821C48.9255 8.6266 50 11.7708 50 14.9992C50 18.2314 48.9255 21.3737 46.9402 23.9421C44.9431 26.526 42.1804 28.3501 39.0167 29.2231C37.5137 29.6382 36.0039 29.8231 34.4539 29.9111C32.749 30.0079 31.0451 29.9992 29.3392 29.9992C29.3275 29.9992 20.6931 30.0001 20.6931 30.0001C18.9559 29.9992 17.252 30.0079 15.5461 29.9111C13.9971 29.8231 12.4873 29.6382 10.9843 29.2231C7.82059 28.3501 5.05784 26.526 3.06078 23.9421C1.07549 21.3737 0 18.2314 0 15.0001C0 11.7708 1.07549 8.6266 3.06078 6.05821C5.05784 3.47337 7.82059 1.65015 10.9843 0.777244C12.4873 0.362083 13.9971 0.176276 15.5461 0.0891796Z" fill="#5E90ED"/>
<circle r="5.7822" transform="matrix(-1 0 0 1 24.2577 29.1975)" fill="white"/>
<g filter="url(#filter0_d)">
<circle r="7.25391" transform="matrix(-1 0 0 1 46.7167 18.4961)" fill="white"/>
</g>
<g filter="url(#filter1_d)">
<circle r="5.7822" transform="matrix(-1 0 0 1 32.7047 23.0193)" fill="white"/>
</g>
<g filter="url(#filter2_d)">
<circle r="5.7822" transform="matrix(-1 0 0 1 33.6805 31.2865)" fill="white"/>
</g>
<g filter="url(#filter3_d)">
<circle r="5.7822" transform="matrix(-1 0 0 1 40.089 25.75)" fill="white"/>
</g>
<g filter="url(#filter4_dd)">
<path fill-rule="evenodd" clip-rule="evenodd" d="M15 28C22.1797 28 28 22.1797 28 15C28 7.8203 22.1797 2 15 2C7.8203 2 2 7.8203 2 15C2 22.1797 7.8203 28 15 28Z" fill="url(#paint0_radial)"/>
<path d="M15 28.25C22.3178 28.25 28.25 22.3178 28.25 15C28.25 7.68223 22.3178 1.75 15 1.75C7.68223 1.75 1.75 7.68223 1.75 15C1.75 22.3178 7.68223 28.25 15 28.25Z" stroke="black" stroke-opacity="0.04" stroke-width="0.5"/>
</g>
</g>
<defs>
<filter id="filter0_d" x="31.4627" y="3.24216" width="30.5078" height="30.5078" filterUnits="userSpaceOnUse" color-interpolation-filters="sRGB">
<feFlood flood-opacity="0" result="BackgroundImageFix"/>
<feColorMatrix in="SourceAlpha" type="matrix" values="0 0 0 0 0 0 0 0 0 0 0 0 0 0 0 0 0 0 127 0" result="hardAlpha"/>
<feOffset/>
<feGaussianBlur stdDeviation="4"/>
<feComposite in2="hardAlpha" operator="out"/>
<feColorMatrix type="matrix" values="0 0 0 0 0 0 0 0 0 0 0 0 0 0 0 0 0 0 0.1 0"/>
<feBlend mode="normal" in2="BackgroundImageFix" result="effect1_dropShadow"/>
<feBlend mode="normal" in="SourceGraphic" in2="effect1_dropShadow" result="shape"/>
</filter>
<filter id="filter1_d" x="18.9225" y="9.23709" width="27.5644" height="27.5644" filterUnits="userSpaceOnUse" color-interpolation-filters="sRGB">
<feFlood flood-opacity="0" result="BackgroundImageFix"/>
<feColorMatrix in="SourceAlpha" type="matrix" values="0 0 0 0 0 0 0 0 0 0 0 0 0 0 0 0 0 0 127 0" result="hardAlpha"/>
<feOffset/>
<feGaussianBlur stdDeviation="4"/>
<feComposite in2="hardAlpha" operator="out"/>
<feColorMatrix type="matrix" values="0 0 0 0 0 0 0 0 0 0 0 0 0 0 0 0 0 0 0.1 0"/>
<feBlend mode="normal" in2="BackgroundImageFix" result="effect1_dropShadow"/>
<feBlend mode="normal" in="SourceGraphic" in2="effect1_dropShadow" result="shape"/>
</filter>
<filter id="filter2_d" x="19.8983" y="17.5043" width="27.5644" height="27.5644" filterUnits="userSpaceOnUse" color-interpolation-filters="sRGB">
<feFlood flood-opacity="0" result="BackgroundImageFix"/>
<feColorMatrix in="SourceAlpha" type="matrix" values="0 0 0 0 0 0 0 0 0 0 0 0 0 0 0 0 0 0 127 0" result="hardAlpha"/>
<feOffset/>
<feGaussianBlur stdDeviation="4"/>
<feComposite in2="hardAlpha" operator="out"/>
<feColorMatrix type="matrix" values="0 0 0 0 0 0 0 0 0 0 0 0 0 0 0 0 0 0 0.1 0"/>
<feBlend mode="normal" in2="BackgroundImageFix" result="effect1_dropShadow"/>
<feBlend mode="normal" in="SourceGraphic" in2="effect1_dropShadow" result="shape"/>
</filter>
<filter id="filter3_d" x="26.3068" y="11.9678" width="27.5644" height="27.5644" filterUnits="userSpaceOnUse" color-interpolation-filters="sRGB">
<feFlood flood-opacity="0" result="BackgroundImageFix"/>
<feColorMatrix in="SourceAlpha" type="matrix" values="0 0 0 0 0 0 0 0 0 0 0 0 0 0 0 0 0 0 127 0" result="hardAlpha"/>
<feOffset/>
<feGaussianBlur stdDeviation="4"/>
<feComposite in2="hardAlpha" operator="out"/>
<feColorMatrix type="matrix" values="0 0 0 0 0 0 0 0 0 0 0 0 0 0 0 0 0 0 0.1 0"/>
<feBlend mode="normal" in2="BackgroundImageFix" result="effect1_dropShadow"/>
<feBlend mode="normal" in="SourceGraphic" in2="effect1_dropShadow" result="shape"/>
</filter>
<filter id="filter4_dd" x="-6.5" y="-3.5" width="43" height="43" filterUnits="userSpaceOnUse" color-interpolation-filters="sRGB">
<feFlood flood-opacity="0" result="BackgroundImageFix"/>
<feColorMatrix in="SourceAlpha" type="matrix" values="0 0 0 0 0 0 0 0 0 0 0 0 0 0 0 0 0 0 127 0" result="hardAlpha"/>
<feOffset dy="3"/>
<feGaussianBlur stdDeviation="0.5"/>
<feColorMatrix type="matrix" values="0 0 0 0 0 0 0 0 0 0 0 0 0 0 0 0 0 0 0.06 0"/>
<feBlend mode="normal" in2="BackgroundImageFix" result="effect1_dropShadow"/>
<feColorMatrix in="SourceAlpha" type="matrix" values="0 0 0 0 0 0 0 0 0 0 0 0 0 0 0 0 0 0 127 0" result="hardAlpha"/>
<feOffset dy="3"/>
<feGaussianBlur stdDeviation="4"/>
<feColorMatrix type="matrix" values="0 0 0 0 0 0 0 0 0 0 0 0 0 0 0 0 0 0 0.15 0"/>
<feBlend mode="normal" in2="effect1_dropShadow" result="effect2_dropShadow"/>
<feBlend mode="normal" in="SourceGraphic" in2="effect2_dropShadow" result="shape"/>
</filter>
<radialGradient id="paint0_radial" cx="0" cy="0" r="1" gradientUnits="userSpaceOnUse" gradientTransform="translate(15 15) rotate(90) scale(13)">
<stop stop-color="#FFC633"/>
<stop offset="1" stop-color="#E7AD18"/>
</radialGradient>
<clipPath id="clip0">
<rect width="50" height="30" rx="15" fill="white"/>
</clipPath>
</defs>
</svg>
